
<global>
amp_veltrack=0
ampeg_release=2.50
</global>

<group>
group_label=RR1_85-127
seq_length=4
seq_position=1
xf_cccurve=gain
xfin_hicc1=127
xfin_locc1=85
xfout_hicc1=127
xfout_locc1=127

<region>
hikey=g6
hivel=127
lokey=f#6
lovel=1
pitch_keycenter=g6
sample=Violins1_pizzicato_FF_G6_RR1.opus
</region>

<region>
hikey=g5
hivel=127
lokey=f#5
lovel=1
pitch_keycenter=g5
sample=Violins1_pizzicato_FF_G5_RR1.opus
</region>

<region>
hikey=g4
hivel=127
lokey=f#4
lovel=1
pitch_keycenter=g4
sample=Violins1_pizzicato_FF_G4_RR1.opus
</region>

<region>
hivel=127
key=g3
lovel=1
sample=Violins1_pizzicato_FF_G3_RR1.opus
</region>

<region>
hikey=f6
hivel=127
lokey=e6
lovel=1
pitch_keycenter=f6
sample=Violins1_pizzicato_FF_F6_RR1.opus
</region>

<region>
hikey=f5
hivel=127
lokey=e5
lovel=1
pitch_keycenter=f5
sample=Violins1_pizzicato_FF_F5_RR1.opus
</region>

<region>
hikey=f4
hivel=127
lokey=e4
lovel=1
pitch_keycenter=f4
sample=Violins1_pizzicato_FF_F4_RR1.opus
</region>

<region>
hikey=d#6
hivel=127
lokey=d6
lovel=1
pitch_keycenter=d#6
sample=Violins1_pizzicato_FF_D#6_RR1.opus
</region>

<region>
hikey=d#5
hivel=127
lokey=d5
lovel=1
pitch_keycenter=d#5
sample=Violins1_pizzicato_FF_D#5_RR1.opus
</region>

<region>
hikey=d#4
hivel=127
lokey=d4
lovel=1
pitch_keycenter=d#4
sample=Violins1_pizzicato_FF_D#4_RR1.opus
</region>

<region>
hikey=c#6
hivel=127
lokey=c6
lovel=1
pitch_keycenter=c#6
sample=Violins1_pizzicato_FF_C#6_RR1.opus
</region>

<region>
hikey=c#5
hivel=127
lokey=c5
lovel=1
pitch_keycenter=c#5
sample=Violins1_pizzicato_FF_C#5_RR1.opus
</region>

<region>
hikey=c#4
hivel=127
lokey=c4
lovel=1
pitch_keycenter=c#4
sample=Violins1_pizzicato_FF_C#4_RR1.opus
</region>

<region>
hikey=E7
hivel=127
lokey=a#6
lovel=1
offset=382
pitch_keycenter=B6
sample=Violins1_pizzicato_FF_B6_RR1.opus
</region>

<region>
hikey=b5
hivel=127
lokey=a#5
lovel=1
pitch_keycenter=b5
sample=Violins1_pizzicato_FF_B5_RR1.opus
</region>

<region>
hikey=b4
hivel=127
lokey=a#4
lovel=1
pitch_keycenter=b4
sample=Violins1_pizzicato_FF_B4_RR1.opus
</region>

<region>
hikey=b3
hivel=127
lokey=a#3
lovel=1
pitch_keycenter=b3
sample=Violins1_pizzicato_FF_B3_RR1.opus
</region>

<region>
hikey=a6
hivel=127
lokey=g#6
lovel=1
pitch_keycenter=a6
sample=Violins1_pizzicato_FF_A6_RR1.opus
</region>

<region>
hikey=a5
hivel=127
lokey=g#5
lovel=1
offset=372
pitch_keycenter=a5
sample=Violins1_pizzicato_FF_A5_RR1.opus
</region>

<region>
hikey=a4
hivel=127
lokey=g#4
lovel=1
pitch_keycenter=a4
sample=Violins1_pizzicato_FF_A4_RR1.opus
</region>

<region>
hikey=a3
hivel=127
lokey=g#3
lovel=1
pitch_keycenter=a3
sample=Violins1_pizzicato_FF_A3_RR1.opus
</region>
</group>

<group>
group_label=RR1_0-42
seq_length=4
seq_position=1
xf_cccurve=gain
xfin_hicc1=42
xfout_hicc1=84
xfout_locc1=42

<region>
hikey=g6
hivel=127
lokey=f#6
lovel=1
offset=12000
pitch_keycenter=g6
sample=Violins1_pizzicato_PP_G6_RR1.opus
</region>

<region>
hikey=g5
hivel=127
lokey=f#5
lovel=1
offset=12000
pitch_keycenter=g5
sample=Violins1_pizzicato_PP_G5_RR1.opus
</region>

<region>
hikey=g4
hivel=127
lokey=f#4
lovel=1
offset=12000
pitch_keycenter=g4
sample=Violins1_pizzicato_PP_G4_RR1.opus
</region>

<region>
hivel=127
key=g3
lovel=1
offset=12000
sample=Violins1_pizzicato_PP_G3_RR1.opus
</region>

<region>
hikey=f6
hivel=127
lokey=e6
lovel=1
offset=12000
pitch_keycenter=f6
sample=Violins1_pizzicato_PP_F6_RR1.opus
</region>

<region>
hikey=f5
hivel=127
lokey=e5
lovel=1
offset=12000
pitch_keycenter=f5
sample=Violins1_pizzicato_PP_F5_RR1.opus
</region>

<region>
hikey=f4
hivel=127
lokey=e4
lovel=1
offset=12000
pitch_keycenter=f4
sample=Violins1_pizzicato_PP_F4_RR1.opus
</region>

<region>
hikey=d#6
hivel=127
lokey=d6
lovel=1
offset=12000
pitch_keycenter=d#6
sample=Violins1_pizzicato_PP_D#6_RR1.opus
</region>

<region>
hikey=d#5
hivel=127
lokey=d5
lovel=1
offset=12000
pitch_keycenter=d#5
sample=Violins1_pizzicato_PP_D#5_RR1.opus
</region>

<region>
hikey=d#4
hivel=127
lokey=d4
lovel=1
offset=12000
pitch_keycenter=d#4
sample=Violins1_pizzicato_PP_D#4_RR1.opus
</region>

<region>
hikey=c#6
hivel=127
lokey=c6
lovel=1
offset=12000
pitch_keycenter=c#6
sample=Violins1_pizzicato_PP_C#6_RR1.opus
</region>

<region>
hikey=c#5
hivel=127
lokey=c5
lovel=1
offset=12000
pitch_keycenter=c#5
sample=Violins1_pizzicato_PP_C#5_RR1.opus
</region>

<region>
hikey=c#4
hivel=127
lokey=c4
lovel=1
offset=12000
pitch_keycenter=c#4
sample=Violins1_pizzicato_PP_C#4_RR1.opus
</region>

<region>
hikey=E7
hivel=127
lokey=a#6
lovel=1
offset=12000
pitch_keycenter=B6
sample=Violins1_pizzicato_PP_B6_RR1.opus
</region>

<region>
hikey=b5
hivel=127
lokey=a#5
lovel=1
offset=12000
pitch_keycenter=b5
sample=Violins1_pizzicato_PP_B5_RR1.opus
</region>

<region>
hikey=b4
hivel=127
lokey=a#4
lovel=1
offset=12000
pitch_keycenter=b4
sample=Violins1_pizzicato_PP_B4_RR1.opus
</region>

<region>
hikey=b3
hivel=127
lokey=a#3
lovel=1
offset=12000
pitch_keycenter=b3
sample=Violins1_pizzicato_PP_B3_RR1.opus
</region>

<region>
hikey=a6
hivel=127
lokey=g#6
lovel=1
offset=12000
pitch_keycenter=a6
sample=Violins1_pizzicato_PP_A6_RR1.opus
</region>

<region>
hikey=a5
hivel=127
lokey=g#5
lovel=1
offset=12000
pitch_keycenter=a5
sample=Violins1_pizzicato_PP_A5_RR1.opus
</region>

<region>
hikey=a4
hivel=127
lokey=g#4
lovel=1
offset=12000
pitch_keycenter=a4
sample=Violins1_pizzicato_PP_A4_RR1.opus
</region>

<region>
hikey=a3
hivel=127
lokey=g#3
lovel=1
offset=12000
pitch_keycenter=a3
sample=Violins1_pizzicato_PP_A3_RR1.opus
</region>
</group>

<group>
group_label=RR1_43-84
seq_length=4
seq_position=1
xf_cccurve=gain
xfin_hicc1=84
xfin_locc1=43
xfout_hicc1=125
xfout_locc1=84

<region>
hikey=g6
hivel=127
lokey=f#6
lovel=1
pitch_keycenter=g6
sample=Violins1_pizzicato_MF_G6_RR1.opus
</region>

<region>
hikey=g5
hivel=127
lokey=f#5
lovel=1
pitch_keycenter=g5
sample=Violins1_pizzicato_MF_G5_RR1.opus
</region>

<region>
hikey=g4
hivel=127
lokey=f#4
lovel=1
offset=1012
pitch_keycenter=g4
sample=Violins1_pizzicato_MF_G4_RR1.opus
</region>

<region>
hivel=127
key=g3
lovel=1
sample=Violins1_pizzicato_MF_G3_RR1.opus
</region>

<region>
hikey=f6
hivel=127
lokey=e6
lovel=1
offset=2684
pitch_keycenter=f6
sample=Violins1_pizzicato_MF_F6_RR1.opus
</region>

<region>
hikey=f5
hivel=127
lokey=e5
lovel=1
pitch_keycenter=f5
sample=Violins1_pizzicato_MF_F5_RR1.opus
</region>

<region>
hikey=f4
hivel=127
lokey=e4
lovel=1
pitch_keycenter=f4
sample=Violins1_pizzicato_MF_F4_RR1.opus
</region>

<region>
hikey=d#6
hivel=127
lokey=d6
lovel=1
pitch_keycenter=d#6
sample=Violins1_pizzicato_MF_D#6_RR1.opus
</region>

<region>
hikey=d#5
hivel=127
lokey=d5
lovel=1
pitch_keycenter=d#5
sample=Violins1_pizzicato_MF_D#5_RR1.opus
</region>

<region>
hikey=d#4
hivel=127
lokey=d4
lovel=1
pitch_keycenter=d#4
sample=Violins1_pizzicato_MF_D#4_RR1.opus
</region>

<region>
hikey=c#6
hivel=127
lokey=c6
lovel=1
pitch_keycenter=c#6
sample=Violins1_pizzicato_MF_C#6_RR1.opus
</region>

<region>
hikey=c#5
hivel=127
lokey=c5
lovel=1
pitch_keycenter=c#5
sample=Violins1_pizzicato_MF_C#5_RR1.opus
</region>

<region>
hikey=c#4
hivel=127
lokey=c4
lovel=1
pitch_keycenter=c#4
sample=Violins1_pizzicato_MF_C#4_RR1.opus
</region>

<region>
hikey=E7
hivel=127
lokey=a#6
lovel=1
offset=7571
pitch_keycenter=B6
sample=Violins1_pizzicato_MF_B6_RR1.opus
</region>

<region>
hikey=b5
hivel=127
lokey=a#5
lovel=1
pitch_keycenter=b5
sample=Violins1_pizzicato_MF_B5_RR1.opus
</region>

<region>
hikey=b4
hivel=127
lokey=a#4
lovel=1
pitch_keycenter=b4
sample=Violins1_pizzicato_MF_B4_RR1.opus
</region>

<region>
hikey=b3
hivel=127
lokey=a#3
lovel=1
pitch_keycenter=b3
sample=Violins1_pizzicato_MF_B3_RR1.opus
</region>

<region>
hikey=a6
hivel=127
lokey=g#6
lovel=1
pitch_keycenter=a6
sample=Violins1_pizzicato_MF_A6_RR1.opus
</region>

<region>
hikey=a5
hivel=127
lokey=g#5
lovel=1
offset=9129
pitch_keycenter=a5
sample=Violins1_pizzicato_MF_A5_RR1.opus
</region>

<region>
hikey=a4
hivel=127
lokey=g#4
lovel=1
pitch_keycenter=a4
sample=Violins1_pizzicato_MF_A4_RR1.opus
</region>

<region>
hikey=a3
hivel=127
lokey=g#3
lovel=1
pitch_keycenter=a3
sample=Violins1_pizzicato_MF_A3_RR1.opus
</region>
</group>

<group>
group_label=RR2_85-127
seq_length=4
seq_position=2
xf_cccurve=gain
xfin_hicc1=127
xfin_locc1=85
xfout_hicc1=127
xfout_locc1=127

<region>
hikey=g6
hivel=127
lokey=f#6
lovel=1
pitch_keycenter=g6
sample=Violins1_pizzicato_FF_G6_RR2.opus
</region>

<region>
hikey=g5
hivel=127
lokey=f#5
lovel=1
pitch_keycenter=g5
sample=Violins1_pizzicato_FF_G5_RR2.opus
</region>

<region>
hikey=g4
hivel=127
lokey=f#4
lovel=1
pitch_keycenter=g4
sample=Violins1_pizzicato_FF_G4_RR2.opus
</region>

<region>
hivel=127
key=g3
lovel=1
sample=Violins1_pizzicato_FF_G3_RR2.opus
</region>

<region>
hikey=f6
hivel=127
lokey=e6
lovel=1
pitch_keycenter=f6
sample=Violins1_pizzicato_FF_F6_RR2.opus
</region>

<region>
hikey=f5
hivel=127
lokey=e5
lovel=1
pitch_keycenter=f5
sample=Violins1_pizzicato_FF_F5_RR2.opus
</region>

<region>
hikey=f4
hivel=127
lokey=e4
lovel=1
pitch_keycenter=f4
sample=Violins1_pizzicato_FF_F4_RR2.opus
</region>

<region>
hikey=d#6
hivel=127
lokey=d6
lovel=1
pitch_keycenter=d#6
sample=Violins1_pizzicato_FF_D#6_RR2.opus
</region>

<region>
hikey=d#5
hivel=127
lokey=d5
lovel=1
pitch_keycenter=d#5
sample=Violins1_pizzicato_FF_D#5_RR2.opus
</region>

<region>
hikey=d#4
hivel=127
lokey=d4
lovel=1
pitch_keycenter=d#4
sample=Violins1_pizzicato_FF_D#4_RR2.opus
</region>

<region>
hikey=c#6
hivel=127
lokey=c6
lovel=1
pitch_keycenter=c#6
sample=Violins1_pizzicato_FF_C#6_RR2.opus
</region>

<region>
hikey=c#5
hivel=127
lokey=c5
lovel=1
pitch_keycenter=c#5
sample=Violins1_pizzicato_FF_C#5_RR2.opus
</region>

<region>
hikey=c#4
hivel=127
lokey=c4
lovel=1
pitch_keycenter=c#4
sample=Violins1_pizzicato_FF_C#4_RR2.opus
</region>

<region>
hikey=E7
hivel=127
lokey=a#6
lovel=1
pitch_keycenter=B6
sample=Violins1_pizzicato_FF_B6_RR2.opus
</region>

<region>
hikey=b5
hivel=127
lokey=a#5
lovel=1
offset=234
pitch_keycenter=b5
sample=Violins1_pizzicato_FF_B5_RR2.opus
</region>

<region>
hikey=b4
hivel=127
lokey=a#4
lovel=1
pitch_keycenter=b4
sample=Violins1_pizzicato_FF_B4_RR2.opus
</region>

<region>
hikey=b3
hivel=127
lokey=a#3
lovel=1
pitch_keycenter=b3
sample=Violins1_pizzicato_FF_B3_RR2.opus
</region>

<region>
hikey=a6
hivel=127
lokey=g#6
lovel=1
pitch_keycenter=a6
sample=Violins1_pizzicato_FF_A6_RR2.opus
</region>

<region>
hikey=a5
hivel=127
lokey=g#5
lovel=1
pitch_keycenter=a5
sample=Violins1_pizzicato_FF_A5_RR2.opus
</region>

<region>
hikey=a4
hivel=127
lokey=g#4
lovel=1
pitch_keycenter=a4
sample=Violins1_pizzicato_FF_A4_RR2.opus
</region>

<region>
hikey=a3
hivel=127
lokey=g#3
lovel=1
pitch_keycenter=a3
sample=Violins1_pizzicato_FF_A3_RR2.opus
</region>
</group>

<group>
group_label=RR2_0-42
seq_length=4
seq_position=2
xf_cccurve=gain
xfin_hicc1=42
xfout_hicc1=84
xfout_locc1=42

<region>
hikey=g6
hivel=127
lokey=f#6
lovel=1
offset=12000
pitch_keycenter=g6
sample=Violins1_pizzicato_PP_G6_RR2.opus
</region>

<region>
hikey=g5
hivel=127
lokey=f#5
lovel=1
offset=12000
pitch_keycenter=g5
sample=Violins1_pizzicato_PP_G5_RR2.opus
</region>

<region>
hikey=g4
hivel=127
lokey=f#4
lovel=1
offset=12000
pitch_keycenter=g4
sample=Violins1_pizzicato_PP_G4_RR2.opus
</region>

<region>
hivel=127
key=g3
lovel=1
offset=12000
sample=Violins1_pizzicato_PP_G3_RR2.opus
</region>

<region>
hikey=f6
hivel=127
lokey=e6
lovel=1
offset=12000
pitch_keycenter=f6
sample=Violins1_pizzicato_PP_F6_RR2.opus
</region>

<region>
hikey=f5
hivel=127
lokey=e5
lovel=1
offset=12000
pitch_keycenter=f5
sample=Violins1_pizzicato_PP_F5_RR2.opus
</region>

<region>
hikey=f4
hivel=127
lokey=e4
lovel=1
offset=12000
pitch_keycenter=f4
sample=Violins1_pizzicato_PP_F4_RR2.opus
</region>

<region>
hikey=d#6
hivel=127
lokey=d6
lovel=1
offset=12000
pitch_keycenter=d#6
sample=Violins1_pizzicato_PP_D#6_RR2.opus
</region>

<region>
hikey=d#5
hivel=127
lokey=d5
lovel=1
offset=12000
pitch_keycenter=d#5
sample=Violins1_pizzicato_PP_D#5_RR2.opus
</region>

<region>
hikey=d#4
hivel=127
lokey=d4
lovel=1
offset=12000
pitch_keycenter=d#4
sample=Violins1_pizzicato_PP_D#4_RR2.opus
</region>

<region>
hikey=c#6
hivel=127
lokey=c6
lovel=1
offset=12000
pitch_keycenter=c#6
sample=Violins1_pizzicato_PP_C#6_RR2.opus
</region>

<region>
hikey=c#5
hivel=127
lokey=c5
lovel=1
offset=12000
pitch_keycenter=c#5
sample=Violins1_pizzicato_PP_C#5_RR2.opus
</region>

<region>
hikey=c#4
hivel=127
lokey=c4
lovel=1
offset=12000
pitch_keycenter=c#4
sample=Violins1_pizzicato_PP_C#4_RR2.opus
</region>

<region>
hikey=E7
hivel=127
lokey=a#6
lovel=1
offset=12000
pitch_keycenter=B6
sample=Violins1_pizzicato_PP_B6_RR2.opus
</region>

<region>
hikey=b5
hivel=127
lokey=a#5
lovel=1
offset=12000
pitch_keycenter=b5
sample=Violins1_pizzicato_PP_B5_RR2.opus
</region>

<region>
hikey=b4
hivel=127
lokey=a#4
lovel=1
offset=12000
pitch_keycenter=b4
sample=Violins1_pizzicato_PP_B4_RR2.opus
</region>

<region>
hikey=b3
hivel=127
lokey=a#3
lovel=1
offset=12000
pitch_keycenter=b3
sample=Violins1_pizzicato_PP_B3_RR2.opus
</region>

<region>
hikey=a6
hivel=127
lokey=g#6
lovel=1
offset=12000
pitch_keycenter=a6
sample=Violins1_pizzicato_PP_A6_RR2.opus
</region>

<region>
hikey=a5
hivel=127
lokey=g#5
lovel=1
offset=12000
pitch_keycenter=a5
sample=Violins1_pizzicato_PP_A5_RR2.opus
</region>

<region>
hikey=a4
hivel=127
lokey=g#4
lovel=1
offset=12000
pitch_keycenter=a4
sample=Violins1_pizzicato_PP_A4_RR2.opus
</region>

<region>
hikey=a3
hivel=127
lokey=g#3
lovel=1
offset=12000
pitch_keycenter=a3
sample=Violins1_pizzicato_PP_A3_RR2.opus
</region>
</group>

<group>
group_label=RR2_43-84
seq_length=4
seq_position=2
xf_cccurve=gain
xfin_hicc1=84
xfin_locc1=43
xfout_hicc1=125
xfout_locc1=84

<region>
hikey=g6
hivel=127
lokey=f#6
lovel=1
offset=84
pitch_keycenter=g6
sample=Violins1_pizzicato_MF_G6_RR2.opus
</region>

<region>
hikey=g5
hivel=127
lokey=f#5
lovel=1
pitch_keycenter=g5
sample=Violins1_pizzicato_MF_G5_RR2.opus
</region>

<region>
hikey=g4
hivel=127
lokey=f#4
lovel=1
pitch_keycenter=g4
sample=Violins1_pizzicato_MF_G4_RR2.opus
</region>

<region>
hivel=127
key=g3
lovel=1
sample=Violins1_pizzicato_MF_G3_RR2.opus
</region>

<region>
hikey=f6
hivel=127
lokey=e6
lovel=1
pitch_keycenter=f6
sample=Violins1_pizzicato_MF_F6_RR2.opus
</region>

<region>
hikey=f5
hivel=127
lokey=e5
lovel=1
pitch_keycenter=f5
sample=Violins1_pizzicato_MF_F5_RR2.opus
</region>

<region>
hikey=f4
hivel=127
lokey=e4
lovel=1
pitch_keycenter=f4
sample=Violins1_pizzicato_MF_F4_RR2.opus
</region>

<region>
hikey=d#6
hivel=127
lokey=d6
lovel=1
pitch_keycenter=d#6
sample=Violins1_pizzicato_MF_D#6_RR2.opus
</region>

<region>
hikey=d#5
hivel=127
lokey=d5
lovel=1
pitch_keycenter=d#5
sample=Violins1_pizzicato_MF_D#5_RR2.opus
</region>

<region>
hikey=d#4
hivel=127
lokey=d4
lovel=1
pitch_keycenter=d#4
sample=Violins1_pizzicato_MF_D#4_RR2.opus
</region>

<region>
hikey=c#6
hivel=127
lokey=c6
lovel=1
pitch_keycenter=c#6
sample=Violins1_pizzicato_MF_C#6_RR2.opus
</region>

<region>
hikey=c#5
hivel=127
lokey=c5
lovel=1
pitch_keycenter=c#5
sample=Violins1_pizzicato_MF_C#5_RR2.opus
</region>

<region>
hikey=c#4
hivel=127
lokey=c4
lovel=1
pitch_keycenter=c#4
sample=Violins1_pizzicato_MF_C#4_RR2.opus
</region>

<region>
hikey=E7
hivel=127
lokey=a#6
lovel=1
pitch_keycenter=B6
sample=Violins1_pizzicato_MF_B6_RR2.opus
</region>

<region>
hikey=b5
hivel=127
lokey=a#5
lovel=1
pitch_keycenter=b5
sample=Violins1_pizzicato_MF_B5_RR2.opus
</region>

<region>
hikey=b4
hivel=127
lokey=a#4
lovel=1
pitch_keycenter=b4
sample=Violins1_pizzicato_MF_B4_RR2.opus
</region>

<region>
hikey=b3
hivel=127
lokey=a#3
lovel=1
pitch_keycenter=b3
sample=Violins1_pizzicato_MF_B3_RR2.opus
</region>

<region>
hikey=a6
hivel=127
lokey=g#6
lovel=1
offset=2248
pitch_keycenter=a6
sample=Violins1_pizzicato_MF_A6_RR2.opus
</region>

<region>
hikey=a5
hivel=127
lokey=g#5
lovel=1
pitch_keycenter=a5
sample=Violins1_pizzicato_MF_A5_RR2.opus
</region>

<region>
hikey=a4
hivel=127
lokey=g#4
lovel=1
pitch_keycenter=a4
sample=Violins1_pizzicato_MF_A4_RR2.opus
</region>

<region>
hikey=a3
hivel=127
lokey=g#3
lovel=1
pitch_keycenter=a3
sample=Violins1_pizzicato_MF_A3_RR2.opus
</region>
</group>

<group>
group_label=RR3_85-127
seq_length=4
seq_position=3
xf_cccurve=gain
xfin_hicc1=127
xfin_locc1=85
xfout_hicc1=127
xfout_locc1=127

<region>
hikey=g6
hivel=127
lokey=f#6
lovel=1
pitch_keycenter=g6
sample=Violins1_pizzicato_FF_G6_RR3.opus
</region>

<region>
hikey=g5
hivel=127
lokey=f#5
lovel=1
pitch_keycenter=g5
sample=Violins1_pizzicato_FF_G5_RR3.opus
</region>

<region>
hikey=g4
hivel=127
lokey=f#4
lovel=1
pitch_keycenter=g4
sample=Violins1_pizzicato_FF_G4_RR3.opus
</region>

<region>
hivel=127
key=g3
lovel=1
sample=Violins1_pizzicato_FF_G3_RR3.opus
</region>

<region>
hikey=f6
hivel=127
lokey=e6
lovel=1
pitch_keycenter=f6
sample=Violins1_pizzicato_FF_F6_RR3.opus
</region>

<region>
hikey=f5
hivel=127
lokey=e5
lovel=1
pitch_keycenter=f5
sample=Violins1_pizzicato_FF_F5_RR3.opus
</region>

<region>
hikey=f4
hivel=127
lokey=e4
lovel=1
pitch_keycenter=f4
sample=Violins1_pizzicato_FF_F4_RR3.opus
</region>

<region>
hikey=d#6
hivel=127
lokey=d6
lovel=1
pitch_keycenter=d#6
sample=Violins1_pizzicato_FF_D#6_RR3.opus
</region>

<region>
hikey=d#5
hivel=127
lokey=d5
lovel=1
pitch_keycenter=d#5
sample=Violins1_pizzicato_FF_D#5_RR3.opus
</region>

<region>
hikey=d#4
hivel=127
lokey=d4
lovel=1
offset=1835
pitch_keycenter=d#4
sample=Violins1_pizzicato_FF_D#4_RR3.opus
</region>

<region>
hikey=c#6
hivel=127
lokey=c6
lovel=1
pitch_keycenter=c#6
sample=Violins1_pizzicato_FF_C#6_RR3.opus
</region>

<region>
hikey=c#5
hivel=127
lokey=c5
lovel=1
pitch_keycenter=c#5
sample=Violins1_pizzicato_FF_C#5_RR3.opus
</region>

<region>
hikey=c#4
hivel=127
lokey=c4
lovel=1
pitch_keycenter=c#4
sample=Violins1_pizzicato_FF_C#4_RR3.opus
</region>

<region>
hikey=E7
hivel=127
lokey=a#6
lovel=1
pitch_keycenter=B6
sample=Violins1_pizzicato_FF_B6_RR3.opus
</region>

<region>
hikey=b5
hivel=127
lokey=a#5
lovel=1
pitch_keycenter=b5
sample=Violins1_pizzicato_FF_B5_RR3.opus
</region>

<region>
hikey=b4
hivel=127
lokey=a#4
lovel=1
pitch_keycenter=b4
sample=Violins1_pizzicato_FF_B4_RR3.opus
</region>

<region>
hikey=b3
hivel=127
lokey=a#3
lovel=1
pitch_keycenter=b3
sample=Violins1_pizzicato_FF_B3_RR3.opus
</region>

<region>
hikey=a6
hivel=127
lokey=g#6
lovel=1
pitch_keycenter=a6
sample=Violins1_pizzicato_FF_A6_RR3.opus
</region>

<region>
hikey=a5
hivel=127
lokey=g#5
lovel=1
pitch_keycenter=a5
sample=Violins1_pizzicato_FF_A5_RR3.opus
</region>

<region>
hikey=a4
hivel=127
lokey=g#4
lovel=1
pitch_keycenter=a4
sample=Violins1_pizzicato_FF_A4_RR3.opus
</region>

<region>
hikey=a3
hivel=127
lokey=g#3
lovel=1
pitch_keycenter=a3
sample=Violins1_pizzicato_FF_A3_RR3.opus
</region>
</group>

<group>
group_label=RR3_0-42
seq_length=4
seq_position=3
xf_cccurve=gain
xfin_hicc1=42
xfout_hicc1=84
xfout_locc1=42

<region>
hikey=g6
hivel=127
lokey=f#6
lovel=1
offset=12000
pitch_keycenter=g6
sample=Violins1_pizzicato_PP_G6_RR3.opus
</region>

<region>
hikey=g5
hivel=127
lokey=f#5
lovel=1
offset=12000
pitch_keycenter=g5
sample=Violins1_pizzicato_PP_G5_RR3.opus
</region>

<region>
hikey=g4
hivel=127
lokey=f#4
lovel=1
offset=12000
pitch_keycenter=g4
sample=Violins1_pizzicato_PP_G4_RR3.opus
</region>

<region>
hivel=127
key=g3
lovel=1
offset=12000
sample=Violins1_pizzicato_PP_G3_RR3.opus
</region>

<region>
hikey=f6
hivel=127
lokey=e6
lovel=1
offset=12000
pitch_keycenter=f6
sample=Violins1_pizzicato_PP_F6_RR3.opus
</region>

<region>
hikey=f5
hivel=127
lokey=e5
lovel=1
offset=12000
pitch_keycenter=f5
sample=Violins1_pizzicato_PP_F5_RR3.opus
</region>

<region>
hikey=f4
hivel=127
lokey=e4
lovel=1
offset=12000
pitch_keycenter=f4
sample=Violins1_pizzicato_PP_F4_RR3.opus
</region>

<region>
hikey=d#6
hivel=127
lokey=d6
lovel=1
offset=12000
pitch_keycenter=d#6
sample=Violins1_pizzicato_PP_D#6_RR3.opus
</region>

<region>
hikey=d#5
hivel=127
lokey=d5
lovel=1
offset=12000
pitch_keycenter=d#5
sample=Violins1_pizzicato_PP_D#5_RR3.opus
</region>

<region>
hikey=d#4
hivel=127
lokey=d4
lovel=1
offset=12000
pitch_keycenter=d#4
sample=Violins1_pizzicato_PP_D#4_RR3.opus
</region>

<region>
hikey=c#6
hivel=127
lokey=c6
lovel=1
offset=12000
pitch_keycenter=c#6
sample=Violins1_pizzicato_PP_C#6_RR3.opus
</region>

<region>
hikey=c#5
hivel=127
lokey=c5
lovel=1
offset=12000
pitch_keycenter=c#5
sample=Violins1_pizzicato_PP_C#5_RR3.opus
</region>

<region>
hikey=c#4
hivel=127
lokey=c4
lovel=1
offset=12000
pitch_keycenter=c#4
sample=Violins1_pizzicato_PP_C#4_RR3.opus
</region>

<region>
hikey=E7
hivel=127
lokey=a#6
lovel=1
offset=12000
pitch_keycenter=B6
sample=Violins1_pizzicato_PP_B6_RR3.opus
</region>

<region>
hikey=b5
hivel=127
lokey=a#5
lovel=1
offset=12000
pitch_keycenter=b5
sample=Violins1_pizzicato_PP_B5_RR3.opus
</region>

<region>
hikey=b4
hivel=127
lokey=a#4
lovel=1
offset=12000
pitch_keycenter=b4
sample=Violins1_pizzicato_PP_B4_RR3.opus
</region>

<region>
hikey=b3
hivel=127
lokey=a#3
lovel=1
offset=12000
pitch_keycenter=b3
sample=Violins1_pizzicato_PP_B3_RR3.opus
</region>

<region>
hikey=a6
hivel=127
lokey=g#6
lovel=1
offset=12000
pitch_keycenter=a6
sample=Violins1_pizzicato_PP_A6_RR3.opus
</region>

<region>
hikey=a5
hivel=127
lokey=g#5
lovel=1
offset=12000
pitch_keycenter=a5
sample=Violins1_pizzicato_PP_A5_RR3.opus
</region>

<region>
hikey=a4
hivel=127
lokey=g#4
lovel=1
offset=12000
pitch_keycenter=a4
sample=Violins1_pizzicato_PP_A4_RR3.opus
</region>

<region>
hikey=a3
hivel=127
lokey=g#3
lovel=1
offset=12000
pitch_keycenter=a3
sample=Violins1_pizzicato_PP_A3_RR3.opus
</region>
</group>

<group>
group_label=RR3_43-84
seq_length=4
seq_position=3
xf_cccurve=gain
xfin_hicc1=84
xfin_locc1=43
xfout_hicc1=125
xfout_locc1=84

<region>
hikey=g6
hivel=127
lokey=f#6
lovel=1
pitch_keycenter=g6
sample=Violins1_pizzicato_MF_G6_RR3.opus
</region>

<region>
hikey=g5
hivel=127
lokey=f#5
lovel=1
pitch_keycenter=g5
sample=Violins1_pizzicato_MF_G5_RR3.opus
</region>

<region>
hikey=g4
hivel=127
lokey=f#4
lovel=1
pitch_keycenter=g4
sample=Violins1_pizzicato_MF_G4_RR3.opus
</region>

<region>
hivel=127
key=g3
lovel=1
sample=Violins1_pizzicato_MF_G3_RR3.opus
</region>

<region>
hikey=f6
hivel=127
lokey=e6
lovel=1
pitch_keycenter=f6
sample=Violins1_pizzicato_MF_F6_RR3.opus
</region>

<region>
hikey=f5
hivel=127
lokey=e5
lovel=1
pitch_keycenter=f5
sample=Violins1_pizzicato_MF_F5_RR3.opus
</region>

<region>
hikey=f4
hivel=127
lokey=e4
lovel=1
pitch_keycenter=f4
sample=Violins1_pizzicato_MF_F4_RR3.opus
</region>

<region>
hikey=d#6
hivel=127
lokey=d6
lovel=1
pitch_keycenter=d#6
sample=Violins1_pizzicato_MF_D#6_RR3.opus
</region>

<region>
hikey=d#5
hivel=127
lokey=d5
lovel=1
pitch_keycenter=d#5
sample=Violins1_pizzicato_MF_D#5_RR3.opus
</region>

<region>
hikey=d#4
hivel=127
lokey=d4
lovel=1
pitch_keycenter=d#4
sample=Violins1_pizzicato_MF_D#4_RR3.opus
</region>

<region>
hikey=c#6
hivel=127
lokey=c6
lovel=1
pitch_keycenter=c#6
sample=Violins1_pizzicato_MF_C#6_RR3.opus
</region>

<region>
hikey=c#5
hivel=127
lokey=c5
lovel=1
pitch_keycenter=c#5
sample=Violins1_pizzicato_MF_C#5_RR3.opus
</region>

<region>
hikey=c#4
hivel=127
lokey=c4
lovel=1
pitch_keycenter=c#4
sample=Violins1_pizzicato_MF_C#4_RR3.opus
</region>

<region>
hikey=E7
hivel=127
lokey=a#6
lovel=1
offset=7632
pitch_keycenter=B6
sample=Violins1_pizzicato_MF_B6_RR3.opus
</region>

<region>
hikey=b5
hivel=127
lokey=a#5
lovel=1
pitch_keycenter=b5
sample=Violins1_pizzicato_MF_B5_RR3.opus
</region>

<region>
hikey=b4
hivel=127
lokey=a#4
lovel=1
pitch_keycenter=b4
sample=Violins1_pizzicato_MF_B4_RR3.opus
</region>

<region>
hikey=b3
hivel=127
lokey=a#3
lovel=1
pitch_keycenter=b3
sample=Violins1_pizzicato_MF_B3_RR3.opus
</region>

<region>
hikey=a6
hivel=127
lokey=g#6
lovel=1
offset=9082
pitch_keycenter=a6
sample=Violins1_pizzicato_MF_A6_RR3.opus
</region>

<region>
hikey=a5
hivel=127
lokey=g#5
lovel=1
pitch_keycenter=a5
sample=Violins1_pizzicato_MF_A5_RR3.opus
</region>

<region>
hikey=a4
hivel=127
lokey=g#4
lovel=1
pitch_keycenter=a4
sample=Violins1_pizzicato_MF_A4_RR3.opus
</region>

<region>
hikey=a3
hivel=127
lokey=g#3
lovel=1
pitch_keycenter=a3
sample=Violins1_pizzicato_MF_A3_RR3.opus
</region>
</group>

<group>
group_label=RR4_85-127
seq_length=4
seq_position=4
xf_cccurve=gain
xfin_hicc1=127
xfin_locc1=85
xfout_hicc1=127
xfout_locc1=127

<region>
hikey=g6
hivel=127
lokey=f#6
lovel=1
pitch_keycenter=g6
sample=Violins1_pizzicato_FF_G6_RR4.opus
</region>

<region>
hikey=g5
hivel=127
lokey=f#5
lovel=1
pitch_keycenter=g5
sample=Violins1_pizzicato_FF_G5_RR4.opus
</region>

<region>
hikey=g4
hivel=127
lokey=f#4
lovel=1
pitch_keycenter=g4
sample=Violins1_pizzicato_FF_G4_RR4.opus
</region>

<region>
hivel=127
key=g3
lovel=1
sample=Violins1_pizzicato_FF_G3_RR4.opus
</region>

<region>
hikey=f6
hivel=127
lokey=e6
lovel=1
pitch_keycenter=f6
sample=Violins1_pizzicato_FF_F6_RR4.opus
</region>

<region>
hikey=f5
hivel=127
lokey=e5
lovel=1
pitch_keycenter=f5
sample=Violins1_pizzicato_FF_F5_RR4.opus
</region>

<region>
hikey=f4
hivel=127
lokey=e4
lovel=1
pitch_keycenter=f4
sample=Violins1_pizzicato_FF_F4_RR4.opus
</region>

<region>
hikey=d#6
hivel=127
lokey=d6
lovel=1
pitch_keycenter=d#6
sample=Violins1_pizzicato_FF_D#6_RR4.opus
</region>

<region>
hikey=d#5
hivel=127
lokey=d5
lovel=1
pitch_keycenter=d#5
sample=Violins1_pizzicato_FF_D#5_RR4.opus
</region>

<region>
hikey=d#4
hivel=127
lokey=d4
lovel=1
pitch_keycenter=d#4
sample=Violins1_pizzicato_FF_D#4_RR4.opus
</region>

<region>
hikey=c#6
hivel=127
lokey=c6
lovel=1
pitch_keycenter=c#6
sample=Violins1_pizzicato_FF_C#6_RR4.opus
</region>

<region>
hikey=c#5
hivel=127
lokey=c5
lovel=1
pitch_keycenter=c#5
sample=Violins1_pizzicato_FF_C#5_RR4.opus
</region>

<region>
hikey=c#4
hivel=127
lokey=c4
lovel=1
pitch_keycenter=c#4
sample=Violins1_pizzicato_FF_C#4_RR4.opus
</region>

<region>
hikey=E7
hivel=127
lokey=a#6
lovel=1
offset=2300
pitch_keycenter=B6
sample=Violins1_pizzicato_FF_B6_RR4.opus
</region>

<region>
hikey=b5
hivel=127
lokey=a#5
lovel=1
pitch_keycenter=b5
sample=Violins1_pizzicato_FF_B5_RR4.opus
</region>

<region>
hikey=b4
hivel=127
lokey=a#4
lovel=1
pitch_keycenter=b4
sample=Violins1_pizzicato_FF_B4_RR4.opus
</region>

<region>
hikey=b3
hivel=127
lokey=a#3
lovel=1
pitch_keycenter=b3
sample=Violins1_pizzicato_FF_B3_RR4.opus
</region>

<region>
hikey=a6
hivel=127
lokey=g#6
lovel=1
offset=681
pitch_keycenter=a6
sample=Violins1_pizzicato_FF_A6_RR4.opus
</region>

<region>
hikey=a5
hivel=127
lokey=g#5
lovel=1
pitch_keycenter=a5
sample=Violins1_pizzicato_FF_A5_RR4.opus
</region>

<region>
hikey=a4
hivel=127
lokey=g#4
lovel=1
pitch_keycenter=a4
sample=Violins1_pizzicato_FF_A4_RR4.opus
</region>

<region>
hikey=a3
hivel=127
lokey=g#3
lovel=1
pitch_keycenter=a3
sample=Violins1_pizzicato_FF_A3_RR4.opus
</region>
</group>

<group>
group_label=RR4_0-42
seq_length=4
seq_position=4
xf_cccurve=gain
xfin_hicc1=42
xfout_hicc1=84
xfout_locc1=42

<region>
hikey=g6
hivel=127
lokey=f#6
lovel=1
offset=12000
pitch_keycenter=g6
sample=Violins1_pizzicato_PP_G6_RR4.opus
</region>

<region>
hikey=g5
hivel=127
lokey=f#5
lovel=1
offset=12000
pitch_keycenter=g5
sample=Violins1_pizzicato_PP_G5_RR4.opus
</region>

<region>
hikey=g4
hivel=127
lokey=f#4
lovel=1
offset=12000
pitch_keycenter=g4
sample=Violins1_pizzicato_PP_G4_RR4.opus
</region>

<region>
hivel=127
key=g3
lovel=1
offset=12000
sample=Violins1_pizzicato_PP_G3_RR4.opus
</region>

<region>
hikey=f6
hivel=127
lokey=e6
lovel=1
offset=12000
pitch_keycenter=f6
sample=Violins1_pizzicato_PP_F6_RR4.opus
</region>

<region>
hikey=f5
hivel=127
lokey=e5
lovel=1
offset=12000
pitch_keycenter=f5
sample=Violins1_pizzicato_PP_F5_RR4.opus
</region>

<region>
hikey=f4
hivel=127
lokey=e4
lovel=1
offset=12000
pitch_keycenter=f4
sample=Violins1_pizzicato_PP_F4_RR4.opus
</region>

<region>
hikey=d#6
hivel=127
lokey=d6
lovel=1
offset=12000
pitch_keycenter=d#6
sample=Violins1_pizzicato_PP_D#6_RR4.opus
</region>

<region>
hikey=d#5
hivel=127
lokey=d5
lovel=1
offset=12000
pitch_keycenter=d#5
sample=Violins1_pizzicato_PP_D#5_RR4.opus
</region>

<region>
hikey=d#4
hivel=127
lokey=d4
lovel=1
offset=12000
pitch_keycenter=d#4
sample=Violins1_pizzicato_PP_D#4_RR4.opus
</region>

<region>
hikey=c#6
hivel=127
lokey=c6
lovel=1
offset=12000
pitch_keycenter=c#6
sample=Violins1_pizzicato_PP_C#6_RR4.opus
</region>

<region>
hikey=c#5
hivel=127
lokey=c5
lovel=1
offset=12000
pitch_keycenter=c#5
sample=Violins1_pizzicato_PP_C#5_RR4.opus
</region>

<region>
hikey=c#4
hivel=127
lokey=c4
lovel=1
offset=12000
pitch_keycenter=c#4
sample=Violins1_pizzicato_PP_C#4_RR4.opus
</region>

<region>
hikey=E7
hivel=127
lokey=a#6
lovel=1
offset=12000
pitch_keycenter=B6
sample=Violins1_pizzicato_PP_B6_RR4.opus
</region>

<region>
hikey=b5
hivel=127
lokey=a#5
lovel=1
offset=12000
pitch_keycenter=b5
sample=Violins1_pizzicato_PP_B5_RR4.opus
</region>

<region>
hikey=b4
hivel=127
lokey=a#4
lovel=1
offset=12000
pitch_keycenter=b4
sample=Violins1_pizzicato_PP_B4_RR4.opus
</region>

<region>
hikey=b3
hivel=127
lokey=a#3
lovel=1
offset=12000
pitch_keycenter=b3
sample=Violins1_pizzicato_PP_B3_RR4.opus
</region>

<region>
hikey=a6
hivel=127
lokey=g#6
lovel=1
offset=12000
pitch_keycenter=a6
sample=Violins1_pizzicato_PP_A6_RR4.opus
</region>

<region>
hikey=a5
hivel=127
lokey=g#5
lovel=1
offset=12000
pitch_keycenter=a5
sample=Violins1_pizzicato_PP_A5_RR4.opus
</region>

<region>
hikey=a4
hivel=127
lokey=g#4
lovel=1
offset=12000
pitch_keycenter=a4
sample=Violins1_pizzicato_PP_A4_RR4.opus
</region>

<region>
hikey=a3
hivel=127
lokey=g#3
lovel=1
offset=12000
pitch_keycenter=a3
sample=Violins1_pizzicato_PP_A3_RR4.opus
</region>
</group>

<group>
group_label=RR4_43-84
seq_length=4
seq_position=4
xf_cccurve=gain
xfin_hicc1=84
xfin_locc1=43
xfout_hicc1=125
xfout_locc1=84

<region>
hikey=g6
hivel=127
lokey=f#6
lovel=1
pitch_keycenter=g6
sample=Violins1_pizzicato_MF_G6_RR4.opus
</region>

<region>
hikey=g5
hivel=127
lokey=f#5
lovel=1
pitch_keycenter=g5
sample=Violins1_pizzicato_MF_G5_RR4.opus
</region>

<region>
hikey=g4
hivel=127
lokey=f#4
lovel=1
offset=577
pitch_keycenter=g4
sample=Violins1_pizzicato_MF_G4_RR4.opus
</region>

<region>
hivel=127
key=g3
lovel=1
offset=735
sample=Violins1_pizzicato_MF_G3_RR4.opus
</region>

<region>
hikey=f6
hivel=127
lokey=e6
lovel=1
pitch_keycenter=f6
sample=Violins1_pizzicato_MF_F6_RR4.opus
</region>

<region>
hikey=f5
hivel=127
lokey=e5
lovel=1
pitch_keycenter=f5
sample=Violins1_pizzicato_MF_F5_RR4.opus
</region>

<region>
hikey=f4
hivel=127
lokey=e4
lovel=1
pitch_keycenter=f4
sample=Violins1_pizzicato_MF_F4_RR4.opus
</region>

<region>
hikey=d#6
hivel=127
lokey=d6
lovel=1
pitch_keycenter=d#6
sample=Violins1_pizzicato_MF_D#6_RR4.opus
</region>

<region>
hikey=d#5
hivel=127
lokey=d5
lovel=1
pitch_keycenter=d#5
sample=Violins1_pizzicato_MF_D#5_RR4.opus
</region>

<region>
hikey=d#4
hivel=127
lokey=d4
lovel=1
pitch_keycenter=d#4
sample=Violins1_pizzicato_MF_D#4_RR4.opus
</region>

<region>
hikey=c#6
hivel=127
lokey=c6
lovel=1
pitch_keycenter=c#6
sample=Violins1_pizzicato_MF_C#6_RR4.opus
</region>

<region>
hikey=c#5
hivel=127
lokey=c5
lovel=1
pitch_keycenter=c#5
sample=Violins1_pizzicato_MF_C#5_RR4.opus
</region>

<region>
hikey=c#4
hivel=127
lokey=c4
lovel=1
pitch_keycenter=c#4
sample=Violins1_pizzicato_MF_C#4_RR4.opus
</region>

<region>
hikey=E7
hivel=127
lokey=a#6
lovel=1
offset=8171
pitch_keycenter=B6
sample=Violins1_pizzicato_MF_B6_RR4.opus
</region>

<region>
hikey=b5
hivel=127
lokey=a#5
lovel=1
offset=7598
pitch_keycenter=b5
sample=Violins1_pizzicato_MF_B5_RR4.opus
</region>

<region>
hikey=b4
hivel=127
lokey=a#4
lovel=1
pitch_keycenter=b4
sample=Violins1_pizzicato_MF_B4_RR4.opus
</region>

<region>
hikey=b3
hivel=127
lokey=a#3
lovel=1
pitch_keycenter=b3
sample=Violins1_pizzicato_MF_B3_RR4.opus
</region>

<region>
hikey=a6
hivel=127
lokey=g#6
lovel=1
offset=2890
pitch_keycenter=a6
sample=Violins1_pizzicato_MF_A6_RR4.opus
</region>

<region>
hikey=a5
hivel=127
lokey=g#5
lovel=1
pitch_keycenter=a5
sample=Violins1_pizzicato_MF_A5_RR4.opus
</region>

<region>
hikey=a4
hivel=127
lokey=g#4
lovel=1
pitch_keycenter=a4
sample=Violins1_pizzicato_MF_A4_RR4.opus
</region>

<region>
hikey=a3
hivel=127
lokey=g#3
lovel=1
pitch_keycenter=a3
sample=Violins1_pizzicato_MF_A3_RR4.opus
</region>
</group>